<?xml version="1.0" encoding="UTF-8"?>
<svg width="32" height="32" version="1.1" viewBox="0 0 8.4667 8.4667" xmlns="http://www.w3.org/2000/svg" xmlns:xlink="http://www.w3.org/1999/xlink">
  <defs>
    <linearGradient id="linearGradient16783">
      <stop offset="0"/>
      <stop stop-opacity="0" offset="1"/>
    </linearGradient>
    <linearGradient id="linearGradient12467-7-5-7">
      <stop stop-color="#fff" offset="0"/>
      <stop stop-color="#fff" stop-opacity=".0029729" offset=".5085"/>
      <stop stop-color="#fff" offset="1"/>
    </linearGradient>
    <linearGradient id="linearGradient6078" x1="16.933" x2="16.933" y2="33.867" gradientTransform="matrix(.2459 0 0 .2459 .069402 .06949)" gradientUnits="userSpaceOnUse">
      <stop stop-color="#f8f8f8" offset="0"/>
      <stop stop-color="#e5e5e5" offset="1"/>
    </linearGradient>
    <linearGradient id="linearGradient12469" x1="17.727" x2="17.727" y1=".79375" y2="33.073" gradientTransform="matrix(.23351 0 0 .23351 .27924 .27924)" gradientUnits="userSpaceOnUse" xlink:href="#linearGradient12467-7-5-7"/>
    <linearGradient id="linearGradient15471" x1="8.4667" x2="8.4667" y1="31.75" y2="33.867" gradientUnits="userSpaceOnUse">
      <stop stop-opacity=".0028925" offset="0"/>
      <stop stop-opacity=".99879" offset=".50359"/>
      <stop stop-opacity="0" offset="1"/>
    </linearGradient>
    <radialGradient id="radialGradient16785" cx="6.35" cy="32.808" r="3.175" gradientTransform="matrix(-2.0009 -.0064398 .0010727 -.33333 19.021 43.785)" gradientUnits="userSpaceOnUse" xlink:href="#linearGradient16783"/>
    <radialGradient id="radialGradient16785-0" cx="9.5235" cy="32.747" r="3.175" gradientTransform="matrix(-2.0009 -.0064398 .0010727 -.33333 46.537 43.785)" gradientUnits="userSpaceOnUse" xlink:href="#linearGradient16783"/>
    <linearGradient id="linearGradient23190" x1="2.3812" x2="2.3812" y1="1.0583" y2="3.7042" gradientUnits="userSpaceOnUse" xlink:href="#linearGradient12467-7-5-7"/>
    <linearGradient id="linearGradient23638" x1="4.6302" x2="7.5406" y1="2.4058" y2="2.4058" gradientUnits="userSpaceOnUse">
      <stop offset="0"/>
      <stop stop-opacity="0" offset="1"/>
    </linearGradient>
    <linearGradient id="linearGradient23828" x1="6.0854" x2="6.0854" y1="1.0583" y2="3.7042" gradientUnits="userSpaceOnUse" xlink:href="#linearGradient12467-7-5-7"/>
    <linearGradient id="linearGradient24202" x1="2.3812" x2="2.3812" y1="4.7625" y2="7.4083" gradientUnits="userSpaceOnUse" xlink:href="#linearGradient12467-7-5-7"/>
    <linearGradient id="linearGradient24894" x1="6.0854" x2="6.0854" y1="4.7625" y2="7.4083" gradientUnits="userSpaceOnUse" xlink:href="#linearGradient12467-7-5-7"/>
  </defs>
  <g transform="matrix(.25 0 0 .24899 0 .034158)" fill-rule="evenodd" stroke-width="1.0605">
    <rect x="6.35" y="31.75" width="21.167" height="2.1167" ry="0" fill="url(#linearGradient15471)" opacity=".6"/>
    <rect y="31.75" width="6.35" height="2.1167" fill="url(#radialGradient16785)" opacity=".6"/>
    <rect x="27.517" y="31.75" width="6.35" height="2.1167" fill="url(#radialGradient16785-0)" opacity=".6"/>
  </g>
  <g fill-rule="evenodd">
    <rect x=".26459" y=".26467" width="7.9375" height="7.9375" ry="1.041" fill="url(#linearGradient6078)" stroke="#000" stroke-linecap="round" stroke-linejoin="round" stroke-opacity=".3" stroke-width=".26458"/>
    <g transform="matrix(.5 0 0 .5 0 .26467)" opacity=".07" stroke="#000" stroke-linecap="round" stroke-linejoin="round" stroke-opacity=".99924" stroke-width=".52917">
      <ellipse cx="4.7625" cy="4.8115" rx="2.6458" ry="2.6352"/>
      <ellipse cx="12.171" cy="4.8115" rx="2.6458" ry="2.6352"/>
      <ellipse cx="4.7625" cy="12.19" rx="2.6458" ry="2.6352"/>
      <ellipse cx="12.171" cy="12.19" rx="2.6458" ry="2.6352"/>
    </g>
    <g transform="matrix(.5 0 0 .5 0 .26467)" opacity=".15">
      <ellipse cx="4.7625" cy="4.8115" rx="2.6458" ry="2.6352"/>
      <ellipse cx="12.171" cy="4.8115" rx="2.6458" ry="2.6352"/>
      <ellipse cx="4.7625" cy="12.19" rx="2.6458" ry="2.6352"/>
      <ellipse cx="12.171" cy="12.19" rx="2.6458" ry="2.6352"/>
    </g>
    <g stroke="#000" stroke-linecap="round" stroke-linejoin="round" stroke-opacity=".3" stroke-width=".26458">
      <ellipse cx="2.3813" cy="2.4058" rx="1.3229" ry="1.3176" fill="#a56de2"/>
      <ellipse cx="6.0854" cy="2.4058" rx="1.3229" ry="1.3176" fill="#f37329"/>
      <ellipse cx="2.3813" cy="6.0951" rx="1.3229" ry="1.3176" fill="#28bca3"/>
      <ellipse cx="6.0854" cy="6.0951" rx="1.3229" ry="1.3176" fill="#d3d3d3"/>
    </g>
  </g>
  <g fill="none" stroke-linecap="round" stroke-linejoin="round">
    <rect x=".52611" y=".52611" width="7.4144" height="7.4144" rx=".84091" ry=".84091" stroke="url(#linearGradient12469)" stroke-opacity=".7" stroke-width=".25848"/>
    <ellipse cx="2.3812" cy="2.4068" rx="1.0824" ry="1.078" opacity=".2" stroke="url(#linearGradient23190)" stroke-opacity=".99963" stroke-width=".21648"/>
    <ellipse cx="6.0854" cy="2.4058" rx="1.3229" ry="1.3176" stroke="url(#linearGradient23638)" stroke-opacity=".3" stroke-width=".26458"/>
    <g stroke-width=".21648">
      <ellipse cx="6.0854" cy="2.4068" rx="1.0824" ry="1.078" opacity=".2" stroke="url(#linearGradient23828)"/>
      <ellipse cx="2.3812" cy="6.0961" rx="1.0824" ry="1.078" opacity=".2" stroke="url(#linearGradient24202)" stroke-opacity=".99742"/>
      <ellipse cx="6.0854" cy="6.0961" rx="1.0824" ry="1.078" opacity=".2" stroke="url(#linearGradient24894)" stroke-opacity=".99887"/>
    </g>
  </g>
</svg>
