<?xml version="1.0" encoding="UTF-8"?>
<svg width="16" height="16" version="1.1" viewBox="0 0 4.2333 4.2333" xmlns="http://www.w3.org/2000/svg" xmlns:xlink="http://www.w3.org/1999/xlink">
  <defs>
    <linearGradient id="linearGradient12467-7-5-7">
      <stop stop-color="#fff" offset="0"/>
      <stop stop-color="#fff" stop-opacity=".0029729" offset=".5085"/>
      <stop stop-color="#fff" offset="1"/>
    </linearGradient>
    <linearGradient id="linearGradient6078" x1="16.933" x2="16.933" y2="33.867" gradientTransform="matrix(.12295 0 0 .12295 .034701 .034788)" gradientUnits="userSpaceOnUse">
      <stop stop-color="#f8f8f8" offset="0"/>
      <stop stop-color="#e5e5e5" offset="1"/>
    </linearGradient>
    <linearGradient id="linearGradient12469" x1="17.727" x2="17.727" y1=".79375" y2="33.073" gradientTransform="matrix(.11675 0 0 .11675 .13962 .13966)" gradientUnits="userSpaceOnUse" xlink:href="#linearGradient12467-7-5-7"/>
    <linearGradient id="linearGradient23190" x1="2.3812" x2="2.3812" y1="1.0583" y2="3.7042" gradientTransform="matrix(.45541 0 0 .45541 .10617 .10746)" gradientUnits="userSpaceOnUse" xlink:href="#linearGradient12467-7-5-7"/>
    <linearGradient id="linearGradient23638" x1="4.6302" x2="7.5406" y1="2.4058" y2="2.4058" gradientTransform="matrix(.5 0 0 .5 0 4.2865e-5)" gradientUnits="userSpaceOnUse">
      <stop offset="0"/>
      <stop stop-opacity="0" offset="1"/>
    </linearGradient>
    <linearGradient id="linearGradient23828" x1="6.0854" x2="6.0854" y1="1.0583" y2="3.7042" gradientTransform="matrix(.45541 0 0 .45541 .27132 .10746)" gradientUnits="userSpaceOnUse" xlink:href="#linearGradient12467-7-5-7"/>
    <linearGradient id="linearGradient24202" x1="2.3812" x2="2.3812" y1="4.7625" y2="7.4083" gradientTransform="matrix(.45541 0 0 .45541 .10617 .27195)" gradientUnits="userSpaceOnUse" xlink:href="#linearGradient12467-7-5-7"/>
    <linearGradient id="linearGradient24894" x1="6.0854" x2="6.0854" y1="4.7625" y2="7.4083" gradientTransform="matrix(.45541 0 0 .45541 .27132 .27195)" gradientUnits="userSpaceOnUse" xlink:href="#linearGradient12467-7-5-7"/>
  </defs>
  <g fill-rule="evenodd">
    <rect x=".13229" y=".13238" width="3.9687" height="3.9687" ry=".52049" fill="url(#linearGradient6078)" stroke="#000" stroke-linecap="round" stroke-linejoin="round" stroke-opacity=".3" stroke-width=".26458"/>
    <g transform="matrix(.25 0 0 .25 0 .088194)" opacity=".07" stroke="#000" stroke-linecap="round" stroke-linejoin="round" stroke-opacity=".99924" stroke-width="1.0583">
      <ellipse cx="4.7625" cy="4.8115" rx="2.6458" ry="2.6352"/>
      <ellipse cx="12.171" cy="4.8115" rx="2.6458" ry="2.6352"/>
      <ellipse cx="4.7625" cy="12.19" rx="2.6458" ry="2.6352"/>
      <ellipse cx="12.171" cy="12.19" rx="2.6458" ry="2.6352"/>
    </g>
    <g transform="matrix(.25 0 0 .25 0 .088194)" opacity=".15">
      <ellipse cx="4.7625" cy="4.8115" rx="2.6458" ry="2.6352"/>
      <ellipse cx="12.171" cy="4.8115" rx="2.6458" ry="2.6352"/>
      <ellipse cx="4.7625" cy="12.19" rx="2.6458" ry="2.6352"/>
      <ellipse cx="12.171" cy="12.19" rx="2.6458" ry="2.6352"/>
    </g>
    <g stroke="#000" stroke-linecap="round" stroke-linejoin="round" stroke-opacity=".3" stroke-width=".26458">
      <ellipse cx="1.1906" cy="1.203" rx=".66146" ry=".6588" fill="#a56de2"/>
      <ellipse cx="3.0427" cy="1.203" rx=".66146" ry=".6588" fill="#f37329"/>
      <ellipse cx="1.1906" cy="3.0476" rx=".66146" ry=".6588" fill="#28bca3"/>
      <ellipse cx="3.0427" cy="3.0476" rx=".66146" ry=".6588" fill="#d3d3d3"/>
    </g>
  </g>
  <g fill="none" stroke-linecap="round" stroke-linejoin="round">
    <rect x=".26306" y=".2631" width="3.7072" height="3.7072" rx=".42046" ry=".42046" stroke="url(#linearGradient12469)" stroke-opacity=".7" stroke-width=".26458"/>
    <ellipse cx="1.1906" cy="1.2035" rx=".49293" ry=".49095" opacity=".2" stroke="url(#linearGradient23190)" stroke-opacity=".99963" stroke-width=".1606"/>
    <ellipse cx="3.0427" cy="1.203" rx=".66146" ry=".6588" stroke="url(#linearGradient23638)" stroke-opacity=".3" stroke-width=".26458"/>
    <g stroke-width=".1606">
      <ellipse cx="3.0427" cy="1.2035" rx=".49293" ry=".49095" opacity=".2" stroke="url(#linearGradient23828)"/>
      <ellipse cx="1.1906" cy="3.0482" rx=".49293" ry=".49095" opacity=".2" stroke="url(#linearGradient24202)" stroke-opacity=".99742"/>
      <ellipse cx="3.0427" cy="3.0482" rx=".49293" ry=".49095" opacity=".2" stroke="url(#linearGradient24894)" stroke-opacity=".99887"/>
    </g>
  </g>
</svg>
