<?xml version="1.0" encoding="UTF-8"?>
<svg width="16" height="16" version="1.1" viewBox="0 0 4.2333 4.2333" xmlns="http://www.w3.org/2000/svg" xmlns:xlink="http://www.w3.org/1999/xlink">
  <defs>
    <linearGradient id="linearGradient24022">
      <stop stop-color="#fff" stop-opacity=".32" offset="0"/>
      <stop stop-color="#fff" stop-opacity=".0039216" offset="1"/>
    </linearGradient>
    <linearGradient id="linearGradient2416" x1="16.669" x2="16.669" y1="8.4667" y2="25.4" gradientTransform="matrix(.125 0 0 .125 -.0066148 .066123)" gradientUnits="userSpaceOnUse">
      <stop stop-color="#f6f6f6" offset="0"/>
      <stop stop-color="#e6e6e6" offset="1"/>
    </linearGradient>
    <linearGradient id="linearGradient10337" x1="16.653" x2="16.653" y1="8.4948" y2="25.458" gradientTransform="matrix(.5084 0 0 .5152 -.27426 -.2572)" gradientUnits="userSpaceOnUse">
      <stop stop-color="#fff" stop-opacity=".80087" offset="0"/>
      <stop stop-color="#fff" stop-opacity="0" offset=".35335"/>
      <stop stop-color="#fff" stop-opacity=".0021838" offset=".81865"/>
      <stop stop-color="#fff" stop-opacity=".59913" offset="1"/>
    </linearGradient>
    <filter id="filter15421" x="-.038436" y="-.070866" width="1.0769" height="1.1417" color-interpolation-filters="sRGB">
      <feGaussianBlur result="blur" stdDeviation="0.5 0.5"/>
    </filter>
    <radialGradient id="radialGradient24024" cx="9.2604" cy="16.933" r="6.6146" gradientTransform="matrix(.10119 0 0 .10113 .32871 .49019)" gradientUnits="userSpaceOnUse" xlink:href="#linearGradient24022"/>
    <radialGradient id="radialGradient28024" cx="9.2604" cy="16.933" r="6.6146" gradientTransform="matrix(.10119 0 0 .10113 2.0541 .49019)" gradientUnits="userSpaceOnUse" xlink:href="#linearGradient24022"/>
  </defs>
  <g>
    <rect transform="matrix(.12493 0 0 .12486 .013052 .08386)" x="1.3073" y="9.5376" width="31.221" height="16.933" rx="8.4667" ry="8.4667" fill-rule="evenodd" filter="url(#filter15421)" opacity=".35012"/>
    <rect x=".15875" y="1.1245" width="3.9026" height="2.1167" rx="1.0583" ry="1.0583" fill="url(#linearGradient2416)" fill-rule="evenodd"/>
    <rect x=".15878" y="1.1245" width="3.9025" height="2.1166" rx="1.0583" ry="1.0583" fill="none" stroke="#000" stroke-opacity=".3" stroke-width=".26458"/>
    <path transform="matrix(.25 0 0 .25 .026458 .066118)" d="m11.701 4.6387c-0.57792-0.00616-1.1821 0.037058-1.7891 0.00781-1.8069 0.00402-3.6115-0.00811-5.4141 0.00586-1.6964 0.05657-3.2593 1.4642-3.5078 3.1719a0.26953 0.26953 0 0 1-0.001953 0.00977c-0.30593 1.6693 0.66375 3.4947 2.2109 4.1387a0.26953 0.26953 0 0 1 0.00977 0.0039c1.0292 0.47233 2.2428 0.25672 3.4805 0.31055 1.8934-0.01336 3.7831 0.02656 5.6621-0.01953 1.6827-0.13967 3.1712-1.6028 3.3496-3.3105a0.26953 0.26953 0 0 1 0-0.011719c0.23917-1.6736-0.79332-3.4495-2.3555-4.0352a0.26953 0.26953 0 0 1-0.0078-0.00195c-0.51272-0.20788-1.0592-0.26338-1.6367-0.26953z" fill="none" stroke="url(#linearGradient10337)" stroke-linecap="round" stroke-linejoin="round" stroke-opacity=".99703" stroke-width="1.0583" style="paint-order:normal"/>
    <g fill-rule="evenodd" stroke-width=".26458">
      <ellipse cx="1.2657" cy="2.4673" rx=".66934" ry=".66895" opacity=".15"/>
      <ellipse cx="1.2658" cy="2.2295" rx=".66934" ry=".66895" opacity=".07" stroke="#000"/>
      <ellipse cx="1.2658" cy="2.2027" rx=".66934" ry=".66895" fill="#f9c440"/>
      <ellipse cx="1.2658" cy="2.2027" rx=".66934" ry=".66895" fill="url(#radialGradient24024)"/>
      <ellipse cx="2.9911" cy="2.4673" rx=".66934" ry=".66895" opacity=".15"/>
      <ellipse cx="2.9911" cy="2.2295" rx=".66934" ry=".66895" opacity=".07" stroke="#000"/>
      <ellipse cx="2.9911" cy="2.2027" rx=".66934" ry=".66895" fill="#a56de2"/>
      <ellipse cx="2.9911" cy="2.2027" rx=".66934" ry=".66895" fill="url(#radialGradient28024)"/>
    </g>
  </g>
</svg>
