<?xml version="1.0" encoding="UTF-8"?>
<svg width="32" height="32" version="1.1" viewBox="0 0 8.4667 8.4667" xmlns="http://www.w3.org/2000/svg" xmlns:xlink="http://www.w3.org/1999/xlink">
  <defs>
    <linearGradient id="linearGradient25130">
      <stop stop-opacity=".07" offset="0"/>
      <stop stop-opacity=".0035241" offset="1"/>
    </linearGradient>
    <linearGradient id="linearGradient24022">
      <stop stop-color="#fff" stop-opacity=".32" offset="0"/>
      <stop stop-color="#fff" stop-opacity=".0039216" offset="1"/>
    </linearGradient>
    <linearGradient id="linearGradient2416" x1="16.669" x2="16.669" y1="8.4667" y2="25.4" gradientTransform="matrix(.25 0 0 .25 -.066146 .066099)" gradientUnits="userSpaceOnUse">
      <stop stop-color="#f6f6f6" offset="0"/>
      <stop stop-color="#e6e6e6" offset="1"/>
    </linearGradient>
    <linearGradient id="linearGradient10337" x1="16.653" x2="16.653" y1="8.4948" y2="25.458" gradientTransform="matrix(.5084 0 0 .5152 -.27426 -.2572)" gradientUnits="userSpaceOnUse">
      <stop stop-color="#fff" stop-opacity=".80087" offset="0"/>
      <stop stop-color="#fff" stop-opacity="0" offset=".35335"/>
      <stop stop-color="#fff" stop-opacity=".0021838" offset=".81865"/>
      <stop stop-color="#fff" stop-opacity=".59913" offset="1"/>
    </linearGradient>
    <filter id="filter15421" x="-.038436" y="-.070866" width="1.0769" height="1.1417" color-interpolation-filters="sRGB">
      <feGaussianBlur result="blur" stdDeviation="0.5 0.5"/>
    </filter>
    <radialGradient id="radialGradient24024" cx="9.2604" cy="16.933" r="6.6146" gradientTransform="matrix(.22487 0 0 .22474 .20456 .52772)" gradientUnits="userSpaceOnUse" xlink:href="#linearGradient24022"/>
    <linearGradient id="linearGradient25132" x1="9.5541" x2="9.5541" y1="10.045" y2="23.583" gradientTransform="matrix(.22487 0 0 .22474 .20456 .52772)" gradientUnits="userSpaceOnUse" xlink:href="#linearGradient25130"/>
    <linearGradient id="linearGradient28022" x1="9.5541" x2="9.5541" y1="10.045" y2="23.583" gradientTransform="matrix(.22487 0 0 .22474 4.0387 .52772)" gradientUnits="userSpaceOnUse" xlink:href="#linearGradient25130"/>
    <radialGradient id="radialGradient28024" cx="9.2604" cy="16.933" r="6.6146" gradientTransform="matrix(.22487 0 0 .22474 4.0387 .52772)" gradientUnits="userSpaceOnUse" xlink:href="#linearGradient24022"/>
  </defs>
  <g>
    <rect transform="matrix(.24985 0 0 .24971 -.026812 .10157)" x="1.3073" y="9.5376" width="31.221" height="16.933" rx="8.4667" ry="8.4667" fill-rule="evenodd" filter="url(#filter15421)" opacity=".35012"/>
    <rect x=".26458" y="2.1828" width="7.8052" height="4.2333" rx="2.1167" ry="2.1167" fill="url(#linearGradient2416)" fill-rule="evenodd"/>
    <rect x=".26464" y="2.1828" width="7.8051" height="4.2332" rx="2.1166" ry="2.1166" fill="none" stroke="#000" stroke-opacity=".3" stroke-width=".26458"/>
    <path transform="matrix(.5 0 0 .5 -1.3595e-8 .06609)" d="m11.701 4.6387c-0.57792-0.00616-1.1821 0.037058-1.7891 0.00781-1.8069 0.00402-3.6115-0.00811-5.4141 0.00586-1.6964 0.05657-3.2593 1.4642-3.5078 3.1719a0.26953 0.26953 0 0 1-0.001953 0.00977c-0.30593 1.6693 0.66375 3.4947 2.2109 4.1387a0.26953 0.26953 0 0 1 0.00977 0.0039c1.0292 0.47233 2.2428 0.25672 3.4805 0.31055 1.8934-0.01336 3.7831 0.02656 5.6621-0.01953 1.6827-0.13967 3.1712-1.6028 3.3496-3.3105a0.26953 0.26953 0 0 1 0-0.011719c0.23917-1.6736-0.79332-3.4495-2.3555-4.0352a0.26953 0.26953 0 0 1-0.0078-0.00195c-0.51272-0.20788-1.0592-0.26338-1.6367-0.26953z" fill="none" stroke="url(#linearGradient10337)" stroke-linecap="round" stroke-linejoin="round" stroke-opacity=".99703" stroke-width=".52917" style="paint-order:normal"/>
    <g fill-rule="evenodd">
      <ellipse cx="2.2869" cy="4.5978" rx="1.4874" ry="1.4866" opacity=".15" stroke-width=".26458"/>
      <g stroke-width=".26458">
        <ellipse cx="2.2869" cy="4.3928" rx="1.4874" ry="1.4866" opacity=".07" stroke="#000"/>
        <ellipse cx="2.2869" cy="4.3333" rx="1.4874" ry="1.4866" fill="#f9c440"/>
        <ellipse cx="2.2869" cy="4.3333" rx="1.4874" ry="1.4866" fill="url(#radialGradient24024)"/>
      </g>
    </g>
    <ellipse cx="2.2869" cy="4.3333" rx="1.4874" ry="1.4866" fill="none" stroke="url(#linearGradient25132)" stroke-width=".26458"/>
    <g fill-rule="evenodd" stroke-width=".26458">
      <ellipse cx="6.1211" cy="4.5978" rx="1.4874" ry="1.4866" opacity=".15"/>
      <ellipse cx="6.1211" cy="4.3928" rx="1.4874" ry="1.4866" opacity=".07" stroke="#000"/>
      <ellipse cx="6.1211" cy="4.3333" rx="1.4874" ry="1.4866" fill="#a56de2"/>
      <ellipse cx="6.1211" cy="4.3333" rx="1.4874" ry="1.4866" fill="url(#radialGradient28024)"/>
    </g>
    <ellipse cx="6.1211" cy="4.3333" rx="1.4874" ry="1.4866" fill="none" stroke="url(#linearGradient28022)" stroke-width=".26458"/>
  </g>
</svg>
