<?xml version="1.0" encoding="UTF-8" standalone="no"?>
<svg
   version="1.2"
   width="24"
   height="24"
   id="svg2"
   sodipodi:docname="color-match-24.svg"
   inkscape:version="1.2.1 (9c6d41e410, 2022-07-14)"
   xmlns:inkscape="http://www.inkscape.org/namespaces/inkscape"
   xmlns:sodipodi="http://sodipodi.sourceforge.net/DTD/sodipodi-0.dtd"
   xmlns:xlink="http://www.w3.org/1999/xlink"
   xmlns="http://www.w3.org/2000/svg"
   xmlns:svg="http://www.w3.org/2000/svg"
   xmlns:rdf="http://www.w3.org/1999/02/22-rdf-syntax-ns#"
   xmlns:cc="http://creativecommons.org/ns#"
   xmlns:dc="http://purl.org/dc/elements/1.1/">
  <sodipodi:namedview
     id="namedview371"
     pagecolor="#505050"
     bordercolor="#ffffff"
     borderopacity="1"
     inkscape:showpageshadow="0"
     inkscape:pageopacity="0"
     inkscape:pagecheckerboard="1"
     inkscape:deskcolor="#505050"
     showgrid="false"
     inkscape:zoom="32"
     inkscape:cx="10"
     inkscape:cy="13.921875"
     inkscape:window-width="1920"
     inkscape:window-height="1049"
     inkscape:window-x="0"
     inkscape:window-y="0"
     inkscape:window-maximized="1"
     inkscape:current-layer="svg2" />
  <defs
     id="defs4">
    <linearGradient
       id="linearGradient4011">
      <stop
         id="stop4013"
         style="stop-color:#ffffff;stop-opacity:1"
         offset="0" />
      <stop
         id="stop4015-3"
         style="stop-color:#ffffff;stop-opacity:0.23529412"
         offset="0.507761" />
      <stop
         id="stop4017-2"
         style="stop-color:#ffffff;stop-opacity:0.15686275"
         offset="0.83456558" />
      <stop
         id="stop4019"
         style="stop-color:#ffffff;stop-opacity:0.39215687"
         offset="1" />
    </linearGradient>
    <linearGradient
       id="linearGradient27416-1-5">
      <stop
         id="stop27420-2-2"
         style="stop-color:#ffe16b;stop-opacity:1"
         offset="0" />
      <stop
         id="stop27422-3-2"
         style="stop-color:#f9c440;stop-opacity:1"
         offset="1" />
    </linearGradient>
    <linearGradient
       x1="71.204407"
       y1="6.2375584"
       x2="71.204407"
       y2="44.340794"
       id="linearGradient12398-3"
       xlink:href="#linearGradient4011"
       gradientUnits="userSpaceOnUse"
       gradientTransform="matrix(0.45945969,0,0,0.45945969,-20.958664,1.3493704)" />
    <linearGradient
       x1="2035.1652"
       y1="3208.0737"
       x2="2035.1652"
       y2="3241.9966"
       id="linearGradient11527-6-5"
       xlink:href="#linearGradient27416-1-5"
       gradientUnits="userSpaceOnUse"
       gradientTransform="matrix(0.72814279,0,0,0.54435672,-1472.5513,-1742.3108)" />
    <radialGradient
       cx="99.157013"
       cy="186.17059"
       r="62.769119"
       fx="99.157013"
       fy="186.17059"
       id="radialGradient3108"
       xlink:href="#linearGradient3820-7-2-2"
       gradientUnits="userSpaceOnUse"
       gradientTransform="matrix(0.11151981,0,0,0.03548359,0.942029,15.166729)" />
    <linearGradient
       id="linearGradient3820-7-2-2">
      <stop
         offset="0"
         style="stop-color:#3d3d3d;stop-opacity:1"
         id="stop3822-2-6-36" />
      <stop
         offset="0.5"
         style="stop-color:#686868;stop-opacity:0.49803922"
         id="stop3864-8-7-6" />
      <stop
         offset="1"
         style="stop-color:#686868;stop-opacity:0"
         id="stop3824-1-2-4" />
    </linearGradient>
  </defs>
  <metadata
     id="metadata7">
    <rdf:RDF>
      <cc:Work
         rdf:about="">
        <dc:format>image/svg+xml</dc:format>
        <dc:type
           rdf:resource="http://purl.org/dc/dcmitype/StillImage" />
      </cc:Work>
    </rdf:RDF>
  </metadata>
  <path
     d="m 19,21.772727 a 7,2.2272727 0 0 1 -14,0 7,2.2272727 0 1 1 14,0 z"
     id="path3818-0-2-5"
     style="fill:url(#radialGradient3108);fill-opacity:1;stroke:none"
     sodipodi:insensitive="true" />
  <path
     d="m 12,3.5000001 c -5.2417743,0 -9.5,4.2582257 -9.5,9.4999999 0,5.241774 4.2582257,9.5 9.5,9.5 5.241774,0 9.500009,-4.258226 9.5,-9.5 0,-5.2417742 -4.258226,-9.4999999 -9.5,-9.4999999 z"
     id="path2555-7-8-5-0-9"
     style="color:#000000;display:inline;overflow:visible;visibility:visible;opacity:0.99;fill:url(#linearGradient11527-6-5);fill-opacity:1;fill-rule:nonzero;stroke:none;stroke-width:1;marker:none;enable-background:accumulate"
     sodipodi:insensitive="true" />
  <path
     d="m 12,3.5 c -5.2417743,0 -9.5000001,4.2582258 -9.5000001,9.5 0,5.241774 4.2582258,9.5 9.5000001,9.5 5.241774,0 9.500009,-4.258226 9.5,-9.5 0,-5.2417742 -4.258226,-9.5 -9.5,-9.5 z"
     id="path2555-7-8-5-1"
     style="color:#000000;display:inline;overflow:visible;visibility:visible;opacity:0.5;fill:none;stroke:#ad5f00;stroke-width:1;stroke-linecap:round;stroke-linejoin:round;stroke-miterlimit:4;stroke-dasharray:none;stroke-dashoffset:0;stroke-opacity:1;marker:none;enable-background:accumulate"
     sodipodi:insensitive="true" />
  <path
     d="M 20.5,12.999691 C 20.5,17.694271 16.694136,21.5 12.000103,21.5 c -4.6944632,0 -8.5001031,-3.805774 -8.5001031,-8.500309 0,-4.6943552 3.8056399,-8.4996999 8.5001031,-8.4996999 4.694033,0 8.499897,3.8053447 8.499897,8.4996999 z"
     id="path8655-6-0-9-5-0"
     style="color:#000000;display:inline;overflow:visible;visibility:visible;opacity:0.8;fill:none;stroke:url(#linearGradient12398-3);stroke-width:1;stroke-linecap:round;stroke-linejoin:round;stroke-miterlimit:4;stroke-dasharray:none;stroke-dashoffset:0;stroke-opacity:1;marker:none;enable-background:accumulate"
     sodipodi:insensitive="true" />
  <path
     id="path1991"
     style="font-weight:bold;font-size:17.5899px;line-height:1.25;font-family:'Times New Roman';-inkscape-font-specification:'Times New Roman, Bold';opacity:0.5;fill:#ffffff;fill-opacity:1;stroke:none;stroke-width:0.417377"
     d="m 11.959217,6.9323603 c -0.994533,0 -1.768446,0.2429986 -2.322775,0.7266782 C 9.0821126,8.1427181 8.8040988,8.704687 8.8040988,9.34597 c 0,0.353249 0.1030637,0.6390579 0.3095798,0.856442 0.2065148,0.21195 0.4631233,0.316996 0.7674612,0.316996 0.2717302,0 0.4972842,-0.08946 0.6766262,-0.268798 0.184777,-0.179341 0.276212,-0.4029156 0.276212,-0.6692113 0,-0.2934683 -0.116674,-0.6493074 -0.350362,-1.0677718 -0.103254,-0.1847765 -0.153864,-0.3208761 -0.153864,-0.4078296 0,-0.1304305 0.07585,-0.2549006 0.228014,-0.3744617 0.201081,-0.1576037 0.44804,-0.2354289 0.741509,-0.2354289 0.385856,0 0.720291,0.1711147 1.002889,0.5134945 0.2826,0.3423798 0.422661,0.8751485 0.422661,1.5979505 0,0.4673753 -0.04479,0.8602103 -0.137179,1.1808523 -0.08695,0.315207 -0.275514,0.737115 -0.563547,1.264271 -0.2826,0.521723 -0.459525,0.932001 -0.530178,1.230904 -0.06522,0.298903 -0.09244,0.750012 -0.08157,1.353253 h 0.335533 c 0.03804,-0.576068 0.141108,-1.003791 0.30958,-1.280956 0.173907,-0.282599 0.531727,-0.603423 1.075187,-0.962107 0.809756,-0.532591 1.356135,-1.01488 1.638734,-1.449649 C 15.053986,10.503719 15.1959,10.025389 15.1959,9.5091015 15.195901,8.7971691 14.917888,8.190536 14.363558,7.6905526 13.814664,7.1851346 13.01353,6.9323603 11.959217,6.9323603 Z M 7.491629,15.826753 c -0.3641184,0 -0.6733132,0.12645 -0.9287392,0.381876 -0.255428,0.255427 -0.3837306,0.566476 -0.3837306,0.930594 0,0.364118 0.1283026,0.675294 0.3837306,0.936154 0.255426,0.255426 0.5646208,0.383731 0.9287392,0.383731 0.3641184,0 0.6751669,-0.128305 0.9305931,-0.383731 0.255426,-0.26086 0.3818767,-0.572036 0.3818767,-0.936154 0,-0.364118 -0.1264507,-0.675167 -0.3818767,-0.930594 C 8.166796,15.953203 7.8557474,15.826753 7.491629,15.826753 Z m 4.165423,0 c -0.364118,0 -0.673313,0.12645 -0.928739,0.381876 -0.255426,0.255427 -0.383731,0.566476 -0.383731,0.930594 0,0.364118 0.128305,0.675294 0.383731,0.936154 0.255426,0.255426 0.564621,0.383731 0.928739,0.383731 0.364118,0 0.675167,-0.128305 0.930594,-0.383731 0.255425,-0.26086 0.381876,-0.572036 0.381876,-0.936154 0,-0.364118 -0.126451,-0.675167 -0.381876,-0.930594 -0.255427,-0.255426 -0.566476,-0.381876 -0.930594,-0.381876 z m 4.851319,0 c -0.364119,0 -0.675167,0.12645 -0.930593,0.381876 -0.255427,0.255427 -0.381876,0.566476 -0.381876,0.930594 -1e-6,0.364118 0.126449,0.675294 0.381876,0.936154 0.255426,0.255426 0.566474,0.383731 0.930593,0.383731 0.364119,0 0.673313,-0.128305 0.92874,-0.383731 0.255425,-0.26086 0.383729,-0.572036 0.383729,-0.936154 1e-6,-0.364118 -0.128304,-0.675167 -0.383729,-0.930594 -0.255427,-0.255426 -0.564621,-0.381876 -0.92874,-0.381876 z" />
  <path
     id="path1981"
     style="font-weight:bold;font-size:17.5899px;line-height:1.25;font-family:'Times New Roman';-inkscape-font-specification:'Times New Roman, Bold';fill:#834800;fill-opacity:1;stroke:none;stroke-width:0.417377"
     d="m 11.959217,6.4145644 c -0.994533,0 -1.768446,0.2429986 -2.322775,0.7266782 -0.5543294,0.4836796 -0.8323432,1.0456485 -0.8323432,1.6869315 0,0.3532492 0.1030637,0.6390582 0.3095798,0.8564423 0.2065148,0.2119495 0.4631233,0.3169946 0.7674612,0.3169946 0.2717302,0 0.4972842,-0.089454 0.6766262,-0.2687966 0.184777,-0.1793419 0.276212,-0.4029159 0.276212,-0.6692113 0,-0.2934686 -0.116674,-0.6493077 -0.350362,-1.0677721 -0.103254,-0.1847765 -0.153864,-0.3208761 -0.153864,-0.4078296 0,-0.1304305 0.07585,-0.2549006 0.228014,-0.3744617 0.201081,-0.1576037 0.44804,-0.2354289 0.741509,-0.2354289 0.385856,0 0.720291,0.1711147 1.002889,0.5134945 0.2826,0.3423798 0.422661,0.8751485 0.422661,1.5979505 0,0.4673758 -0.04479,0.8602105 -0.137179,1.1808522 -0.08695,0.315207 -0.275514,0.737116 -0.563547,1.264272 -0.2826,0.521723 -0.459525,0.932 -0.530178,1.230904 -0.06522,0.298903 -0.09243,0.750011 -0.08157,1.353252 h 0.335533 c 0.03804,-0.576067 0.141107,-1.00379 0.30958,-1.280955 0.173907,-0.282599 0.531727,-0.603423 1.075187,-0.962108 0.809756,-0.53259 1.356135,-1.014879 1.638734,-1.449649 0.2826,-0.4402019 0.424514,-0.9185308 0.424514,-1.434818 -1e-6,-0.7119328 -0.278014,-1.3185659 -0.832344,-1.8185493 C 13.814664,6.6673387 13.01353,6.4145644 11.959217,6.4145644 Z M 7.491629,15.308958 c -0.3641184,0 -0.6733132,0.12645 -0.9287392,0.381876 -0.255428,0.255426 -0.3837306,0.566475 -0.3837306,0.930593 0,0.364119 0.1283026,0.675294 0.3837306,0.936154 0.255426,0.255427 0.5646208,0.383731 0.9287392,0.383731 0.3641184,0 0.6751669,-0.128304 0.9305931,-0.383731 0.255426,-0.26086 0.3818767,-0.572035 0.3818767,-0.936154 0,-0.364118 -0.1264507,-0.675167 -0.3818767,-0.930593 C 8.166796,15.435408 7.8557474,15.308958 7.491629,15.308958 Z m 4.165423,0 c -0.364118,0 -0.673313,0.12645 -0.928739,0.381876 -0.255426,0.255426 -0.383731,0.566475 -0.383731,0.930593 0,0.364119 0.128305,0.675294 0.383731,0.936154 0.255426,0.255427 0.564621,0.383731 0.928739,0.383731 0.364118,0 0.675167,-0.128304 0.930594,-0.383731 0.255425,-0.26086 0.381876,-0.572035 0.381876,-0.936154 0,-0.364118 -0.126451,-0.675167 -0.381876,-0.930593 -0.255427,-0.255426 -0.566476,-0.381876 -0.930594,-0.381876 z m 4.851319,0 c -0.364119,0 -0.675167,0.12645 -0.930593,0.381876 -0.255427,0.255426 -0.381876,0.566475 -0.381876,0.930593 -1e-6,0.364119 0.126449,0.675294 0.381876,0.936154 0.255426,0.255427 0.566474,0.383731 0.930593,0.383731 0.364119,0 0.673313,-0.128304 0.92874,-0.383731 0.255425,-0.26086 0.383729,-0.572035 0.383729,-0.936154 1e-6,-0.364118 -0.128304,-0.675167 -0.383729,-0.930593 -0.255427,-0.255426 -0.564621,-0.381876 -0.92874,-0.381876 z" />
</svg>
