<?xml version="1.0" encoding="UTF-8"?>
<svg width="64" height="64" version="1.1" viewBox="0 0 16.933 16.933" xmlns="http://www.w3.org/2000/svg" xmlns:xlink="http://www.w3.org/1999/xlink">
  <defs>
    <linearGradient id="linearGradient16783">
      <stop offset="0"/>
      <stop stop-opacity="0" offset="1"/>
    </linearGradient>
    <linearGradient id="linearGradient12467-7-5-7">
      <stop stop-color="#fff" offset="0"/>
      <stop stop-color="#fff" stop-opacity=".0029729" offset=".5085"/>
      <stop stop-color="#fff" offset="1"/>
    </linearGradient>
    <linearGradient id="linearGradient6078" x1="16.933" x2="16.933" y2="33.867" gradientTransform="matrix(.49179 0 0 .49179 .13905 .13905)" gradientUnits="userSpaceOnUse">
      <stop stop-color="#f8f8f8" offset="0"/>
      <stop stop-color="#e5e5e5" offset="1"/>
    </linearGradient>
    <linearGradient id="linearGradient12469" x1="17.727" x2="17.727" y1=".79375" y2="33.073" gradientTransform="matrix(.49162 0 0 .49162 .14194 .14194)" gradientUnits="userSpaceOnUse" xlink:href="#linearGradient12467-7-5-7"/>
    <linearGradient id="linearGradient15471" x1="8.4667" x2="8.4667" y1="31.75" y2="33.867" gradientUnits="userSpaceOnUse">
      <stop stop-opacity=".0028925" offset="0"/>
      <stop stop-opacity=".99879" offset=".50359"/>
      <stop stop-opacity="0" offset="1"/>
    </linearGradient>
    <radialGradient id="radialGradient16785" cx="6.35" cy="32.808" r="3.175" gradientTransform="matrix(-2.0009 -.0064398 .0010727 -.33333 19.021 43.785)" gradientUnits="userSpaceOnUse" xlink:href="#linearGradient16783"/>
    <radialGradient id="radialGradient16785-0" cx="9.5235" cy="32.747" r="3.175" gradientTransform="matrix(-2.0009 -.0064398 .0010727 -.33333 46.537 43.785)" gradientUnits="userSpaceOnUse" xlink:href="#linearGradient16783"/>
    <linearGradient id="linearGradient18645" x1="4.7625" x2="4.7625" y1="2.1167" y2="7.4083" gradientUnits="userSpaceOnUse" xlink:href="#linearGradient12467-7-5-7"/>
    <linearGradient id="linearGradient18994" x1="4.7625" x2="4.7625" y1="2.1167" y2="7.4083" gradientTransform="translate(7.4083 .0066147)" gradientUnits="userSpaceOnUse" xlink:href="#linearGradient12467-7-5-7"/>
    <linearGradient id="linearGradient19078" x1="4.7625" x2="4.7625" y1="2.1167" y2="7.4083" gradientTransform="translate(7.4083 7.3779)" gradientUnits="userSpaceOnUse" xlink:href="#linearGradient12467-7-5-7"/>
    <linearGradient id="linearGradient19082" x1="4.7625" x2="4.7625" y1="2.1167" y2="7.4083" gradientTransform="translate(-7.8273e-7 7.3779)" gradientUnits="userSpaceOnUse" xlink:href="#linearGradient12467-7-5-7"/>
  </defs>
  <g transform="matrix(.5 0 0 .49799 0 .06814)" fill-rule="evenodd">
    <rect x="6.35" y="31.75" width="21.167" height="2.1167" ry="0" fill="url(#linearGradient15471)" opacity=".6"/>
    <rect y="31.75" width="6.35" height="2.1167" fill="url(#radialGradient16785)" opacity=".6"/>
    <rect x="27.517" y="31.75" width="6.35" height="2.1167" fill="url(#radialGradient16785-0)" opacity=".6"/>
  </g>
  <g fill-rule="evenodd">
    <rect x=".52941" y=".52941" width="15.875" height="15.875" ry="2.0819" fill="url(#linearGradient6078)" stroke="#000" stroke-linecap="round" stroke-linejoin="round" stroke-opacity=".3" stroke-width=".26507"/>
    <g transform="matrix(.5 0 0 .49799 0 .33263)" opacity=".07" stroke="#000" stroke-linecap="round" stroke-linejoin="round" stroke-opacity=".99924" stroke-width=".53023">
      <circle cx="9.525" cy="9.525" r="5.2917" opacity="1"/>
      <circle cx="24.342" cy="9.525" r="5.2917" opacity="1"/>
      <circle cx="9.525" cy="24.342" r="5.2917" opacity="1"/>
      <circle cx="24.342" cy="24.342" r="5.2917" opacity="1"/>
    </g>
    <g transform="matrix(.5 0 0 .49799 0 .33263)" opacity=".15">
      <circle cx="9.525" cy="9.525" r="5.2917" opacity="1"/>
      <circle cx="24.342" cy="9.525" r="5.2917" opacity="1"/>
      <circle cx="9.525" cy="24.342" r="5.2917" opacity="1"/>
      <circle cx="24.342" cy="24.342" r="5.2917" opacity="1"/>
    </g>
  </g>
  <g fill-rule="evenodd" stroke="#000" stroke-linecap="round" stroke-linejoin="round" stroke-opacity=".3" stroke-width=".26458">
    <ellipse cx="4.7625" cy="4.8115" rx="2.6458" ry="2.6352" fill="#a56de2"/>
    <ellipse cx="12.171" cy="4.8115" rx="2.6458" ry="2.6352" fill="#f37329"/>
    <ellipse cx="4.7625" cy="12.19" rx="2.6458" ry="2.6352" fill="#28bca3"/>
    <ellipse cx="12.171" cy="12.19" rx="2.6458" ry="2.6352" fill="#d3d3d3"/>
  </g>
  <g fill="none" stroke-linecap="round" stroke-linejoin="round">
    <rect x=".66169" y=".66169" width="15.61" height="15.61" ry="1.9516" stroke="url(#linearGradient12469)" stroke-opacity=".7" stroke-width=".26505"/>
    <g stroke-opacity=".99734" stroke-width=".23934">
      <ellipse cx="4.7625" cy="4.8114" rx="2.3939" ry="2.3833" opacity=".2" stroke="url(#linearGradient18645)"/>
      <ellipse cx="12.171" cy="4.8181" rx="2.3939" ry="2.3833" opacity=".2" stroke="url(#linearGradient18994)"/>
      <ellipse cx="12.171" cy="12.189" rx="2.3939" ry="2.3833" opacity=".2" stroke="url(#linearGradient19078)"/>
      <ellipse cx="4.7625" cy="12.189" rx="2.3939" ry="2.3833" opacity=".2" stroke="url(#linearGradient19082)"/>
    </g>
  </g>
</svg>
